<!--?xml version="1.0" standalone="no"?-->
              <svg id="sw-js-blob-svg" viewBox="0 0 100 100" xmlns="http://www.w3.org/2000/svg" version="1.1">
                    <defs> 
                        <linearGradient id="sw-gradient" x1="0" x2="1" y1="1" y2="0">
                            <stop id="stop1" stop-color="rgba(25, 102, 174, 1)" offset="0%"></stop>
                            <stop id="stop2" stop-color="rgba(10.932, 24.805, 91.755, 1)" offset="100%"></stop>
                        </linearGradient>
                    </defs>
                <path fill="url(#sw-gradient)" d="M21.1,-33.7C26.4,-29.5,29,-21.9,30,-15.1C31,-8.2,30.4,-2,29.1,3.8C27.7,9.6,25.5,14.9,22.6,21.1C19.6,27.2,15.9,34.2,9.7,38.7C3.5,43.2,-5.2,45.1,-11,41.6C-16.9,38,-20,29,-23,22C-26,14.9,-28.8,9.7,-29.8,4.2C-30.8,-1.4,-29.9,-7.3,-28.1,-13.6C-26.4,-19.8,-23.7,-26.3,-18.9,-30.7C-14.1,-35.1,-7,-37.3,0.4,-38C7.9,-38.7,15.8,-37.8,21.1,-33.7Z" width="100%" height="100%" transform="translate(50 50)" stroke-width="0" style="transition: all 0.3s ease 0s;" stroke="url(#sw-gradient)"></path>
              </svg>