<!--?xml version="1.0" standalone="no"?-->
              <svg id="sw-js-blob-svg" viewBox="0 0 100 100" xmlns="http://www.w3.org/2000/svg" version="1.1">
                    <defs> 
                        <linearGradient id="sw-gradient" x1="0" x2="1" y1="1" y2="0">
                            <stop id="stop1" stop-color="rgba(25, 102, 174, 1)" offset="0%"></stop>
                            <stop id="stop2" stop-color="rgba(10.932, 24.805, 91.755, 1)" offset="100%"></stop>
                        </linearGradient>
                    </defs>
                <path fill="url(#sw-gradient)" d="M21.4,-33.3C25.7,-30.6,25.6,-21.1,29.4,-13.3C33.2,-5.5,40.8,0.7,39.6,5.4C38.4,10,28.5,13,21.4,15.2C14.3,17.5,10.2,18.9,4.9,23.6C-0.3,28.3,-6.6,36.2,-11.6,36.2C-16.6,36.3,-20.2,28.4,-25.7,22.2C-31.2,15.9,-38.6,11.3,-40.1,5.4C-41.6,-0.6,-37.2,-7.8,-32,-12.7C-26.8,-17.7,-20.9,-20.5,-15.4,-22.6C-9.9,-24.8,-5,-26.4,1.8,-29.2C8.6,-32,17.1,-36,21.4,-33.3Z" width="100%" height="100%" transform="translate(50 50)" stroke-width="0" style="transition: all 0.3s ease 0s;" stroke="url(#sw-gradient)"></path>
              </svg>